<svg width="160" height="24" viewBox="0 0 160 24" fill="none" xmlns="http://www.w3.org/2000/svg">
<path d="M45.8527 0L50.4015 7.00591L58.4702 9.16716L53.2129 15.6584L53.6507 24L45.8527 21.0059L38.0546 24L38.4925 15.6584L33.2351 9.16716L41.3038 7.00591L45.8527 0Z" fill="#F85559"/>
<path d="M45.9037 0L50.4526 7.00591L58.5213 9.16716L53.264 15.6584L53.7018 24L45.9037 21.0059V0Z" fill="#FBC0A8"/>
<path d="M12.6176 0L17.1664 7.00591L25.2351 9.16716L19.9778 15.6584L20.4156 24L12.6176 21.0059L4.81952 24L5.25735 15.6584L0 9.16716L8.06871 7.00591L12.6176 0Z" fill="#F85559"/>
<path d="M79.6176 0L84.1664 7.00591L92.2351 9.16716L86.9778 15.6584L87.4156 24L79.6176 21.0059L71.8195 24L72.2574 15.6584L67 9.16716L75.0687 7.00591L79.6176 0Z" fill="#FBC0A8"/>
<path d="M146.618 0L151.166 7.00591L159.235 9.16716L153.978 15.6584L154.416 24L146.618 21.0059L138.82 24L139.257 15.6584L134 9.16716L142.069 7.00591L146.618 0Z" fill="#FBC0A8"/>
<path d="M113.618 0L118.166 7.00591L126.235 9.16716L120.978 15.6584L121.416 24L113.618 21.0059L105.82 24L106.257 15.6584L101 9.16716L109.069 7.00591L113.618 0Z" fill="#FBC0A8"/>
</svg>
